<?xml version="1.0" standalone="no"?><!-- Generator: Gravit.io --><svg xmlns="http://www.w3.org/2000/svg" xmlns:xlink="http://www.w3.org/1999/xlink" style="isolation:isolate" viewBox="200 156.5 50 50" width="50" height="50"><path d=" M 245.417 156.5 L 204.583 156.5 C 202.083 156.5 200 158.583 200 161.083 L 200 201.917 C 200 204.417 202.083 206.5 204.583 206.5 L 225 206.5 L 225 185.667 L 218.75 185.667 L 218.75 179.417 L 225 179.417 L 225 173.167 C 225 167.958 227.083 164.833 233.333 164.833 L 239.583 164.833 L 239.583 171.083 L 236.875 171.083 C 235 171.083 233.333 172.75 233.333 174.625 L 233.333 179.417 L 241.667 179.417 L 240.625 185.667 L 233.333 185.667 L 233.333 206.5 L 245.417 206.5 C 247.917 206.5 250 204.417 250 201.917 L 250 161.083 C 250 158.583 247.917 156.5 245.417 156.5 Z " fill="rgb(0,0,0)"/></svg>