<?xml version="1.0" standalone="no"?><!-- Generator: Gravit.io --><svg xmlns="http://www.w3.org/2000/svg" xmlns:xlink="http://www.w3.org/1999/xlink" style="isolation:isolate" viewBox="126.64 156.5 51.36 50" width="51.36" height="50"><path d=" M 152.32 156.5 C 138.137 156.5 126.64 167.981 126.64 182.133 C 126.647 193.178 133.721 202.981 144.201 206.47 C 145.485 206.703 146.394 205.391 146.394 204.403 C 146.394 203.803 146.41 203.076 146.394 200.946 C 139.247 202.487 137.011 197.489 137.011 197.489 C 135.837 194.526 134.419 193.677 134.419 193.677 C 132.088 192.089 134.589 192.136 134.589 192.136 C 137.165 192.306 138.492 194.526 138.492 194.526 C 140.468 197.983 144.928 197.647 146.394 196.996 C 146.394 195.423 146.564 194.277 146.994 193.554 C 138.927 192.132 134.526 187.47 134.541 181.023 C 134.557 177.21 135.869 174.247 137.998 172.054 C 137.074 170.885 136.438 166.871 138.338 164.402 C 143.107 164.402 145.947 167.843 145.947 167.843 C 145.947 167.843 148.183 166.871 152.308 166.871 C 156.441 166.871 158.661 167.795 158.661 167.795 C 158.661 167.795 161.517 164.402 166.286 164.402 C 168.182 166.871 167.55 170.881 166.811 171.979 C 168.85 174.124 170.098 177.088 170.098 181.023 C 170.098 187.474 165.713 192.136 157.661 193.539 C 158.167 194.309 158.246 195.392 158.246 196.996 L 158.246 204.403 C 158.246 205.391 159.143 206.718 160.455 206.47 C 170.929 202.975 177.995 193.174 178 182.133 C 178 167.981 166.503 156.5 152.32 156.5 Z " fill="rgb(0,0,0)"/></svg>