<?xml version="1.0" standalone="no"?><!-- Generator: Gravit.io --><svg xmlns="http://www.w3.org/2000/svg" xmlns:xlink="http://www.w3.org/1999/xlink" style="isolation:isolate" viewBox="272 156.5 50 50" width="50" height="50"><path d=" M 317 156.5 L 277 156.5 C 274.245 156.5 272 158.745 272 161.5 L 272 201.5 C 272 204.255 274.245 206.5 277 206.5 L 317 206.5 C 319.755 206.5 322 204.255 322 201.5 L 322 161.5 C 322 158.745 319.755 156.5 317 156.5 Z  M 287.255 196.5 L 279.5 196.5 L 279.5 174.995 L 287.255 174.995 L 287.255 196.5 Z  M 283.25 172.495 C 281.005 172.495 279.5 171.003 279.5 169 C 279.5 167 281.005 165.505 283.505 165.505 C 285.75 165.505 287.255 166.998 287.255 169 C 287.255 171 285.75 172.495 283.25 172.495 Z  M 314.5 196.5 L 306.745 196.5 L 306.745 184.75 C 306.745 181.5 304.755 180.75 304.003 180.75 C 303.25 180.75 300.75 181.245 300.75 184.75 L 300.75 196.5 L 292.995 196.5 L 292.995 174.995 L 300.75 174.995 L 300.75 178.005 C 301.745 176.245 303.75 174.995 307.5 174.995 C 311.25 174.995 314.245 178.005 314.245 184.753 L 314.245 196.5 L 314.5 196.5 Z " fill="rgb(0,0,0)"/></svg>