<?xml version="1.0" standalone="no"?><!-- Generator: Gravit.io --><svg xmlns="http://www.w3.org/2000/svg" xmlns:xlink="http://www.w3.org/1999/xlink" style="isolation:isolate" viewBox="344 156.5 61.519 50" width="61.519" height="50"><path d=" M 405.519 162.429 C 403.259 163.434 400.824 164.112 398.271 164.42 C 400.905 162.839 402.876 160.357 403.819 157.434 C 401.341 158.904 398.63 159.94 395.802 160.496 C 391.894 156.322 385.668 155.296 380.628 157.996 C 375.587 160.695 372.99 166.445 374.298 172.012 C 364.148 171.5 354.692 166.703 348.284 158.814 C 347.159 160.744 346.57 162.939 346.575 165.172 C 346.575 169.548 348.801 173.409 352.191 175.671 C 350.185 175.611 348.224 175.07 346.471 174.094 L 346.471 174.252 C 346.473 180.26 350.705 185.436 356.592 186.631 C 355.51 186.926 354.392 187.074 353.27 187.071 C 352.453 187.071 351.664 186.996 350.895 186.845 C 352.546 191.985 357.282 195.506 362.679 195.607 C 358.211 199.119 352.688 201.021 347.005 201.007 C 345.983 201.007 344.986 200.951 344 200.838 C 349.771 204.544 356.487 206.509 363.345 206.5 C 386.561 206.5 399.257 187.268 399.257 170.601 C 399.257 170.048 399.247 169.502 399.218 168.956 C 401.695 167.179 403.83 164.968 405.519 162.429 Z " fill="rgb(0,0,0)"/></svg>